<svg xmlns="http://www.w3.org/2000/svg" xmlns:xlink="http://www.w3.org/1999/xlink" width="15" height="15" viewBox="0 0 15 15">
    <defs>
        <path id="a" d="M.002.015v14.949h14.983V.014H.002z"/>
    </defs>
    <g fill="none" fill-rule="evenodd">
        <mask id="b" fill="#fff">
            <use xlink:href="#a"/>
        </mask>
        <path fill="#000" d="M7.493.015C3.36.015 0 3.368 0 7.489c0 4.122 3.361 7.475 7.493 7.475 4.131 0 7.492-3.353 7.492-7.475 0-4.121-3.361-7.474-7.492-7.474zM7.494 14.2C3.785 14.2.768 11.19.768 7.49S3.785.782 7.494.782s6.726 3.01 6.726 6.71-3.017 6.71-6.726 6.71z" mask="url(#b)"/>
        <path fill="#000" d="M8.384 4.492a.77.77 0 1 1-1.54-.002.77.77 0 0 1 1.54.002zM7.595 6.533a.46.46 0 0 0-.46.46v3.91a.46.46 0 0 0 .921 0v-3.91a.46.46 0 0 0-.46-.46z"/>
    </g>
</svg>
