<svg xmlns="http://www.w3.org/2000/svg" width="42" height="44" viewBox="0 0 42 44">
    <g fill="#FFF" fill-rule="evenodd">
        <path d="M22.596 16.349h-4.842v-4.892a.812.812 0 0 0-.807-.815.812.812 0 0 0-.807.815v4.892h-4.842a.812.812 0 0 0-.807.815c0 .45.361.816.807.816h4.842v4.892c0 .45.361.815.807.815a.812.812 0 0 0 .807-.815V17.98h4.842a.812.812 0 0 0 .807-.816.812.812 0 0 0-.807-.815z"/>
        <path d="M40.931 41.848l-11.99-12.6a17.156 17.156 0 0 0 4.953-12.084c0-9.441-7.602-17.122-16.947-17.122C7.602.042 0 7.722 0 17.164s7.602 17.123 16.947 17.123c4.102 0 7.866-1.482 10.8-3.94l12.02 12.63A.798.798 0 0 0 40.91 43a.822.822 0 0 0 .022-1.152zM1.614 17.164c0-8.542 6.878-15.491 15.333-15.491 8.454 0 15.333 6.95 15.333 15.491 0 8.543-6.879 15.492-15.333 15.492-8.455 0-15.333-6.95-15.333-15.492z"/>
    </g>
</svg>
